<svg width="77" height="52" viewBox="0 0 77 52" fill="none" xmlns="http://www.w3.org/2000/svg">
<path d="M8.80438 30.675C11.8576 27.3279 14.7763 23.8405 18.003 20.6663C27.5131 11.3548 39.7141 4.58674 52.7777 2.05552C57.0258 1.23339 61.3758 0.764648 65.6694 0.482217C67.7296 0.341495 69.8556 0.296393 71.8897 0.701783C72.9619 0.917663 73.9686 1.21191 74.8683 1.86374C75.2987 2.17327 76.9879 3.71155 75.8391 4.30006C74.5858 4.93415 73.158 4.6123 71.835 4.50584C57.3361 3.28649 40.5727 8.00463 29.1603 17.189C26.0641 19.6845 23.1087 22.5661 20.5119 25.5897C18.8364 27.5521 17.0741 29.428 15.5156 31.8367C16.3304 31.5681 17.1453 31.2995 17.9691 31.0518C19.6794 30.5291 21.3687 29.9285 23.118 29.5256C23.5568 29.4211 24.0255 29.3284 24.4676 29.4339C24.9396 29.5512 26.1855 30.1141 26.0878 30.7536C25.9753 31.4742 25.1701 32.2857 24.4956 32.5056C17.4216 34.7477 11.7413 38.6198 7.55719 44.8232C6.88368 45.826 3.05561 52.5703 1.43213 51.0407C0.248165 49.9285 0.159129 48.1021 0.225775 46.5808C0.403071 42.9471 1.16272 39.37 2.10163 35.8639C3.00203 32.5859 3.86041 29.1523 5.10136 25.9744C5.53585 24.877 6.87518 21.5816 8.58129 22.3788C10.1828 23.1347 9.46356 25.6496 9.3011 26.9764C9.20364 27.7899 8.78909 30.4081 8.80438 30.675Z" fill="#1F40FF"/>
</svg>
