<svg width="94" height="81" viewBox="0 0 94 81" fill="none" xmlns="http://www.w3.org/2000/svg">
<g clip-path="url(#clip0)">
<path d="M58.775 14.5815L58.7421 26.1391L49.3636 31.5894L49.3964 20.0317L58.775 14.5815Z" fill="#D80029"/>
<path d="M19.4853 20.0327L19.4526 31.5903L10.0127 26.1402L10.0456 14.5825L19.4853 20.0327Z" fill="#D80029"/>
<path d="M10.0461 14.5815L19.486 20.0316L19.4533 31.5893C27.6861 26.8049 41.0778 26.8049 49.3643 31.5891L49.397 20.0315L58.7755 14.5812C45.2756 6.78728 23.4581 6.78741 10.0461 14.5815Z" fill="#FF3502"/>
<path d="M58.7755 14.5813L49.397 20.0316C41.1105 15.2473 27.7186 15.2473 19.486 20.0317L10.0461 14.5816C23.4581 6.78738 45.2756 6.78724 58.7755 14.5813Z" fill="#FF6342"/>
<path d="M68.9419 28.9856C69.0429 23.781 65.6529 18.5526 58.7748 14.5815L49.3964 20.0318L49.3636 31.5895C50.9036 32.4785 52.1579 33.4704 53.1284 34.5266C53.1284 34.5266 52.1331 35.8247 49.4949 37.358L58.9339 42.8074L58.9011 54.3651C65.5642 50.4931 68.8993 45.4256 68.9139 40.3507L68.9466 28.793C68.9462 28.8572 68.9431 28.9213 68.9419 28.9856Z" fill="#FF9911"/>
<path d="M58.7751 14.5815C72.2748 22.3757 72.3461 35.0131 58.934 42.8074L49.495 37.358C57.7278 32.5736 57.6831 24.816 49.3967 20.0318L58.7751 14.5815Z" fill="#FFA834"/>
<path d="M53.1283 34.526C57.4444 29.8821 56.1948 23.9562 49.3965 20.0312L49.3638 31.5889C50.9036 32.4778 52.1578 33.4699 53.1283 34.526Z" fill="#F18700"/>
<path d="M49.4938 37.3572C41.261 42.1415 27.8683 42.1421 19.5818 37.3578C17.9715 36.4281 16.6741 35.3859 15.6866 34.2752C15.7301 34.3241 15.7733 34.3729 15.8179 34.4217C16.7629 33.4047 17.9734 32.4489 19.4524 31.5894L19.4851 20.0317L10.0452 14.5815C3.36081 18.4661 0.0264661 23.5537 0.0333339 28.6451C0.0333339 28.6288 0.0323912 28.6125 0.0325259 28.596L-0.000196722 40.1538C-0.0148748 45.2945 3.37804 50.443 10.1714 54.3651C23.6712 62.1593 45.4887 62.1592 58.9008 54.3648L58.9335 42.8072L49.4938 37.3572Z" fill="#943EC7"/>
<path d="M58.9339 42.8072C45.5218 50.6015 23.7045 50.6015 10.2046 42.8074C-3.29531 35.0134 -3.36641 22.3759 10.0457 14.5815L19.4856 20.0317C11.2528 24.816 11.2956 32.5736 19.5822 37.3578C27.8689 42.1421 41.2616 42.1415 49.4942 37.3572L58.9339 42.8072Z" fill="#A258CB"/>
<path d="M15.8181 34.4218C16.7632 33.4048 17.9736 32.449 19.4526 31.5894L19.4853 20.0317C12.7822 23.9273 11.5659 29.7939 15.8181 34.4218Z" fill="#7F33AD"/>
</g>
<rect x="49" y="38" width="43" height="26" rx="13" fill="#FF6624"/>
<path d="M63.1104 47.6738V49.8955H65.585C66.027 49.8955 66.3848 49.8135 66.6582 49.6494C66.9362 49.4808 67.0752 49.1846 67.0752 48.7607C67.0752 48.2913 66.8929 47.9814 66.5283 47.8311C66.2139 47.7262 65.8128 47.6738 65.3252 47.6738H63.1104ZM63.1104 51.5635V54.25H65.585C66.027 54.25 66.3711 54.1908 66.6172 54.0723C67.0638 53.8535 67.2871 53.4342 67.2871 52.8145C67.2871 52.2904 67.0706 51.9303 66.6377 51.7344C66.3962 51.625 66.0566 51.568 65.6191 51.5635H63.1104ZM65.9951 45.9238C67.2301 45.9421 68.1051 46.2998 68.6201 46.9971C68.93 47.4255 69.085 47.9382 69.085 48.5352C69.085 49.1504 68.93 49.6449 68.6201 50.0186C68.4469 50.2282 68.1917 50.4196 67.8545 50.5928C68.3695 50.7796 68.7568 51.0758 69.0166 51.4814C69.2809 51.887 69.4131 52.3792 69.4131 52.958C69.4131 53.555 69.2627 54.0905 68.9619 54.5645C68.7705 54.8789 68.5312 55.1432 68.2441 55.3574C67.9206 55.6035 67.5378 55.7721 67.0957 55.8633C66.6582 55.9544 66.182 56 65.667 56H61.1006V45.9238H65.9951ZM72.4693 47.6602H70.4937V45.8623H72.4693V47.6602ZM70.4937 48.5488H72.4693V56H70.4937V48.5488ZM77.0021 54.4004C77.4578 54.4004 77.8429 54.2295 78.1573 53.8877C78.4718 53.5413 78.629 52.9922 78.629 52.2402C78.629 51.5339 78.4786 50.9961 78.1779 50.627C77.8816 50.2578 77.4829 50.0732 76.9816 50.0732C76.298 50.0732 75.8263 50.3945 75.5665 51.0371C75.4298 51.3789 75.3614 51.8005 75.3614 52.3018C75.3614 52.7347 75.4344 53.1198 75.5802 53.457C75.8445 54.0859 76.3185 54.4004 77.0021 54.4004ZM76.5167 48.3711C76.8904 48.3711 77.2163 48.4281 77.4943 48.542C77.9682 48.738 78.351 49.098 78.6427 49.6221V48.5488H80.5363V55.6172C80.5363 56.5788 80.3745 57.3034 80.0509 57.791C79.4949 58.6296 78.4285 59.0488 76.8517 59.0488C75.8992 59.0488 75.1222 58.862 74.5206 58.4883C73.9191 58.1146 73.5864 57.5563 73.5226 56.8135H75.6417C75.6964 57.0413 75.7853 57.2054 75.9083 57.3057C76.118 57.4834 76.4711 57.5723 76.9679 57.5723C77.6697 57.5723 78.1391 57.3376 78.3761 56.8682C78.531 56.5674 78.6085 56.0615 78.6085 55.3506V54.8721C78.4217 55.1911 78.2211 55.4303 78.007 55.5898C77.6196 55.8861 77.116 56.0342 76.4962 56.0342C75.5392 56.0342 74.7736 55.6992 74.1993 55.0293C73.6297 54.3548 73.3448 53.4434 73.3448 52.2949C73.3448 51.1875 73.6206 50.2578 74.172 49.5059C74.7234 48.7493 75.505 48.3711 76.5167 48.3711Z" fill="white"/>
<defs>
<clipPath id="clip0">
<rect width="68.9464" height="68.9464" fill="white"/>
</clipPath>
</defs>
</svg>
