<svg width="420" height="309" viewBox="0 0 420 309" fill="none" xmlns="http://www.w3.org/2000/svg">
<mask id="mask0" mask-type="alpha" maskUnits="userSpaceOnUse" x="0" y="51" width="420" height="206">
<rect y="51" width="420" height="206" rx="10" fill="#C4C4C4"/>
</mask>
<g mask="url(#mask0)">
<rect x="-14" y="38" width="454" height="221" fill="#5123D2"/>
<path d="M83.9311 505.178V544.439H31.4822H22.3672V426.878V270.914C22.3672 218.39 61.7412 175.056 112.621 168.818V169.49H204.444V168.033C240.941 168.033 275.945 182.528 301.758 208.341L348.529 255.112V186.637H426.119H433.478C433.478 186.637 429.742 222.649 426.044 257.876H426.119V327.322C426.119 350.11 407.627 368.601 384.839 368.601C374.529 368.601 364.405 366.547 355.066 362.662C345.69 358.777 337.098 353.098 329.813 345.776L285.358 301.434V426.915H280.614H88.2644H65.1033L58.2296 454.821C58.2296 454.821 62.2642 456.726 69.3246 458.967V459.714C71.8648 470.324 76.9827 479.924 83.9684 487.844L83.9311 487.881V505.178Z" fill="#2C42CE"/>
<path d="M355.887 154.846C354.281 153.426 352.749 151.895 351.33 150.251C353.31 149.504 355.14 148.196 356.485 146.366C360.408 141.099 359.1 133.59 353.609 129.966L347.818 126.119H384.316C388.164 126.119 391.376 123.391 392.123 119.768L393.431 119.992C394.402 114.052 397.914 108.972 402.845 105.946H393.618C393.169 105.946 392.721 105.946 392.273 105.871C389.284 105.61 386.557 104.452 384.353 102.658C383.942 102.322 383.569 101.986 383.195 101.613C380.543 98.9602 378.899 95.2619 378.899 91.2273C378.899 86.8192 380.879 82.8221 383.942 80.1324C386.221 78.1525 389.098 76.8824 392.236 76.5835C392.684 76.5461 393.132 76.5088 393.58 76.5088H400.865C416.928 76.5088 430.041 89.098 430.937 104.937H431.012C432.581 109.607 433.44 114.613 433.44 119.805C433.44 130.938 429.555 141.136 423.017 149.168V167.248H355.887V154.846ZM398.026 87.529V82.2991C398.026 80.4312 396.494 78.937 394.664 78.937H391.75C389.882 78.937 388.388 80.4312 388.388 82.2991V87.529C388.388 89.3969 389.882 90.8911 391.75 90.8911H394.664C396.494 90.8911 398.026 89.3969 398.026 87.529Z" fill="#FFC3A8"/>
<path d="M426.08 167.249V186.637H348.49V167.249H355.887H423.017H426.08Z" fill="white"/>
<path d="M393.617 105.908H402.844C397.913 108.934 394.364 114.015 393.431 119.955L392.123 119.73C392.235 119.207 392.272 118.647 392.272 118.124V105.908V105.871C392.721 105.908 393.169 105.908 393.617 105.908Z" fill="#FFC3A8"/>
<path d="M398.027 82.3359V87.5659C398.027 89.4337 396.495 90.928 394.665 90.928H391.751C389.883 90.928 388.389 89.4337 388.389 87.5659V82.3359C388.389 80.4681 389.883 78.9738 391.751 78.9738H394.665C396.495 78.9365 398.027 80.4681 398.027 82.3359Z" fill="#FFC3A8"/>
<path d="M392.272 105.871V118.086C392.272 118.647 392.197 119.17 392.122 119.693C391.375 123.316 388.162 126.043 384.315 126.043H347.817L345.875 124.773L340.196 120.888L339.748 120.253C339.561 119.543 339.449 118.833 339.449 118.086V110.54C341.952 110.578 344.492 109.644 346.398 107.738L351.515 102.621H383.978H384.389C386.593 104.414 389.32 105.572 392.272 105.871ZM372.996 115.098C372.996 111.138 369.82 107.963 365.86 107.963C361.938 107.963 358.725 111.138 358.725 115.098C358.725 119.02 361.901 122.233 365.86 122.233C369.82 122.233 372.996 119.02 372.996 115.098Z" fill="white"/>
<path d="M392.272 76.5086V76.5833C389.096 76.8822 386.22 78.1523 383.978 80.1322V48.0054H347.78V83.6811L339.449 75.3879V70.8304V46.5112C339.449 42.1031 343.035 38.5542 347.406 38.5542H347.78H384.277C388.685 38.5542 392.234 42.1031 392.234 46.5112V76.5086H392.272Z" fill="white"/>
<path d="M384.391 102.658H383.98H351.517L352.339 101.836C356.112 98.0629 356.112 91.9737 352.339 88.2381L347.781 83.7179V48.0049H383.98V80.0943C380.879 82.784 378.937 86.7812 378.937 91.1892C378.937 95.2611 380.58 98.9221 383.233 101.574C383.606 101.948 383.98 102.322 384.391 102.658Z" fill="#02012D"/>
<path d="M365.862 107.963C369.821 107.963 372.997 111.138 372.997 115.098C372.997 119.02 369.821 122.233 365.862 122.233C361.939 122.233 358.727 119.058 358.727 115.098C358.727 111.176 361.939 107.963 365.862 107.963Z" fill="#02012D"/>
<path d="M340.199 120.888L345.877 124.773L347.819 126.043L353.61 129.891C359.101 133.514 360.408 141.023 356.486 146.29C355.141 148.121 353.311 149.428 351.331 150.176C350.023 150.661 348.641 150.923 347.259 150.923C344.905 150.923 342.477 150.176 340.423 148.681L331.494 142.106C322.193 135.233 320.549 121.896 327.983 113.006L332.54 107.514L332.765 107.738C334.595 109.569 336.986 110.503 339.414 110.54V118.086C339.414 118.833 339.526 119.543 339.713 120.253L340.199 120.888ZM351.929 144.012C352.638 143.04 352.414 141.733 351.443 141.023L349.949 139.94C348.977 139.23 347.67 139.454 346.96 140.425L343.598 145.095C342.888 146.066 343.112 147.374 344.084 148.084L345.578 149.167C346.549 149.877 347.857 149.653 348.566 148.681L351.929 144.012Z" fill="#FFC3A8"/>
<path d="M339.45 75.3885L347.781 83.6817L352.338 88.2018C356.111 91.9749 356.111 98.064 352.338 101.8L351.516 102.622L346.399 107.739C344.493 109.645 341.953 110.616 339.45 110.541C337.022 110.504 334.631 109.57 332.801 107.739L332.577 107.515L318.605 93.5438C314.832 89.7708 314.832 83.6817 318.605 79.946L324.508 74.0436C328.281 70.2706 334.37 70.2706 338.143 74.0436L339.45 75.3885ZM347.482 97.0927C348.192 96.1215 347.968 94.814 346.996 94.1042L345.502 93.0208C344.531 92.3111 343.223 92.5352 342.513 93.5065L339.151 98.1761C338.442 99.1474 338.666 100.455 339.637 101.165L341.131 102.248C342.103 102.958 343.41 102.734 344.12 101.762L347.482 97.0927Z" fill="#FFC3A8"/>
<path d="M351.443 141.024C352.415 141.734 352.639 143.079 351.929 144.013L348.567 148.682C347.857 149.654 346.55 149.84 345.578 149.168L344.084 148.085C343.113 147.375 342.926 146.03 343.598 145.096L346.961 140.426C347.67 139.455 349.015 139.268 349.949 139.941L351.443 141.024Z" fill="#FFC3A8"/>
<path d="M347.82 38.5171H347.446C343.038 38.5171 339.489 42.0659 339.489 46.474V70.7933L326.414 58.7644C323.276 55.8506 321.67 51.9281 321.67 47.931C321.67 44.4194 322.94 40.9079 325.48 38.0688C330.934 32.017 340.274 31.5687 346.288 37.0975L347.82 38.5171Z" fill="#FFC3A8"/>
<path d="M346.959 94.1037C347.93 94.8135 348.154 96.1583 347.445 97.0923L344.083 101.762C343.373 102.733 342.065 102.92 341.094 102.247L339.6 101.164C338.628 100.454 338.442 99.1095 339.114 98.1756L342.476 93.506C343.186 92.5347 344.531 92.3479 345.465 93.0204L346.959 94.1037Z" fill="#FFC3A8"/>
<path d="M219.2 89.6953C222.786 89.6953 225.7 92.6091 225.7 96.158C225.7 97.9511 224.99 99.5575 223.795 100.753C222.637 101.948 220.993 102.658 219.2 102.658H218.453C218.602 100.94 218.677 99.1839 218.677 97.4282C218.677 94.8132 218.528 92.2356 218.191 89.7327H219.2V89.6953Z" fill="#FF6639"/>
<path d="M218.415 102.659C216.921 119.88 208.254 135.047 195.403 145.096H162.492L167.498 136.056C168.768 133.702 168.768 130.9 167.535 128.509C149.866 94.8511 175.156 84.5406 175.156 84.5406C190.136 77.3308 198.915 67.3939 204.033 57.98C211.542 66.7215 216.622 77.667 218.154 89.6958C218.49 92.2361 218.639 94.7764 218.639 97.3913C218.639 99.1471 218.565 100.94 218.415 102.659Z" fill="#FFC3A8"/>
<path d="M193.013 40.3098C204.594 35.3413 211.168 30.1114 211.168 30.1114C211.168 30.1114 211.99 43.4104 204.033 57.9422C198.915 67.3561 190.137 77.2929 175.157 84.5028C175.157 84.5028 149.866 94.8132 167.536 128.472C168.769 130.825 168.769 133.664 167.498 136.018L162.493 145.058H120.765C106.607 133.963 97.5293 116.742 97.5293 97.3535C97.5293 71.017 114.34 48.603 137.8 40.2724C161.26 31.9419 198.094 23.5366 198.094 23.5366C198.094 33.735 193.312 39.9362 193.013 40.3098Z" fill="#FF6639"/>
<path d="M195.404 145.096H204.407V168.033V169.49H112.621V168.817V145.096H120.765H162.492H195.404Z" fill="white"/>
<path d="M195.402 145.657C195.253 145.657 195.066 145.582 194.954 145.47C194.767 145.246 194.767 144.91 194.991 144.686C208.104 134.413 216.434 119.059 217.854 102.585C218.003 100.904 218.078 99.1478 218.078 97.392C218.078 94.7771 217.928 92.1995 217.592 89.7713C216.098 78.116 211.279 67.2452 203.621 58.3543C203.397 58.1301 203.434 57.7566 203.696 57.5324C203.92 57.3083 204.293 57.3456 204.517 57.6071C212.325 66.6848 217.256 77.7798 218.75 89.6219C219.087 92.1248 219.236 94.7397 219.236 97.392C219.236 99.1852 219.161 100.941 219.012 102.697C217.555 119.507 209.075 135.122 195.776 145.545C195.627 145.62 195.514 145.657 195.402 145.657Z" fill="#02012D"/>
<path d="M204.406 170.05H112.621C112.322 170.05 112.061 169.788 112.061 169.489V145.096C112.061 144.797 112.322 144.535 112.621 144.535H204.444C204.743 144.535 205.004 144.797 205.004 145.096V169.489C205.004 169.826 204.743 170.05 204.406 170.05ZM113.181 168.929H203.846V145.693H113.181V168.929Z" fill="#02012D"/>
<path d="M285.359 427.476H61.1814C60.8826 427.476 60.6211 427.214 60.6211 426.915V238.936C60.6211 238.637 60.8826 238.376 61.1814 238.376C61.4803 238.376 61.7418 238.637 61.7418 238.936V426.318H284.799V241.85C284.799 241.551 285.06 241.29 285.359 241.29C285.658 241.29 285.919 241.551 285.919 241.85V426.878C285.957 427.214 285.695 427.476 285.359 427.476Z" fill="#02012D"/>
<path d="M384.316 291.496C384.167 291.496 384.017 291.459 383.905 291.347L348.08 255.522C347.856 255.298 347.856 254.924 348.08 254.7C348.304 254.476 348.678 254.476 348.902 254.7L384.727 290.525C384.951 290.749 384.951 291.123 384.727 291.347C384.615 291.459 384.466 291.496 384.316 291.496Z" fill="#02012D"/>
<path d="M348.491 255.708C348.341 255.708 348.192 255.634 348.08 255.522L301.309 208.751C275.421 182.863 241.016 168.63 204.406 168.63C204.107 168.63 203.846 168.368 203.846 168.07C203.846 167.771 204.107 167.509 204.406 167.509C241.314 167.509 276.019 181.892 302.094 207.967L348.864 254.737C349.089 254.961 349.089 255.335 348.864 255.559C348.79 255.634 348.64 255.708 348.491 255.708Z" fill="#02012D"/>
<path d="M83.9309 545H22.367C22.0681 545 21.8066 544.739 21.8066 544.44V270.914C21.8066 218.727 60.8071 174.571 112.546 168.258C112.845 168.221 113.144 168.445 113.181 168.744C113.219 169.042 112.994 169.341 112.696 169.379C61.5168 175.655 22.9273 219.287 22.9273 270.914V543.88H83.9309C84.2297 543.88 84.4912 544.141 84.4912 544.44C84.4912 544.739 84.2671 545 83.9309 545Z" fill="#02012D"/>
<path d="M348.49 255.709C348.191 255.709 347.93 255.448 347.93 255.149V167.248C347.93 166.949 348.191 166.688 348.49 166.688H426.08C426.379 166.688 426.64 166.949 426.64 167.248V186.636C426.64 186.935 426.379 187.197 426.08 187.197C425.781 187.197 425.52 186.935 425.52 186.636V167.809H349.05V255.074C349.05 255.448 348.789 255.709 348.49 255.709Z" fill="#02012D"/>
<path d="M384.316 126.678H347.818C347.519 126.678 347.258 126.417 347.258 126.118C347.258 125.819 347.519 125.557 347.818 125.557H384.316C387.827 125.557 390.853 123.092 391.563 119.655C391.675 119.169 391.712 118.646 391.712 118.161V105.945C391.712 105.646 391.974 105.385 392.273 105.385C392.571 105.385 392.833 105.646 392.833 105.945V118.161C392.833 118.721 392.758 119.319 392.646 119.879C391.862 123.802 388.35 126.678 384.316 126.678Z" fill="#02012D"/>
<path d="M392.271 77.0695C391.973 77.0695 391.711 76.808 391.711 76.5092V46.5117C391.711 42.4398 388.386 39.1151 384.314 39.1151H347.406C343.334 39.1151 340.009 42.4398 340.009 46.5117V75.3885C340.009 75.6873 339.748 75.9488 339.449 75.9488C339.15 75.9488 338.889 75.6873 338.889 75.3885V46.5117C338.889 41.8048 342.736 37.957 347.443 37.957H384.352C389.059 37.957 392.907 41.8048 392.907 46.5117V76.5092C392.869 76.8454 392.608 77.0695 392.271 77.0695Z" fill="#02012D"/>
<path d="M339.449 76.172C339.15 76.172 338.889 75.9105 338.889 75.6116V75.3875C338.889 75.0886 339.15 74.8271 339.449 74.8271C339.748 74.8271 340.009 75.0886 340.009 75.3875V75.6116C340.009 75.9105 339.748 76.172 339.449 76.172Z" fill="#02012D"/>
<path d="M340.196 121.486C340.009 121.486 339.86 121.411 339.748 121.262L339.3 120.627C339.262 120.589 339.225 120.515 339.225 120.44C339.001 119.693 338.889 118.908 338.889 118.124V108.822C338.889 108.523 339.15 108.262 339.449 108.262C339.748 108.262 340.009 108.523 340.009 108.822V118.124C340.009 118.796 340.084 119.431 340.271 120.029L340.682 120.552C340.869 120.814 340.831 121.15 340.57 121.374C340.458 121.449 340.346 121.486 340.196 121.486Z" fill="#02012D"/>
<path d="M384.39 103.219H351.105C350.806 103.219 350.545 102.957 350.545 102.658C350.545 102.36 350.806 102.098 351.105 102.098H384.353C384.652 102.098 384.95 102.36 384.95 102.658C384.95 102.957 384.726 103.219 384.39 103.219Z" fill="#02012D"/>
<path d="M347.781 84.2427C347.482 84.2427 347.221 83.9812 347.221 83.6823V48.0066C347.221 47.7078 347.482 47.4463 347.781 47.4463H383.98C384.279 47.4463 384.54 47.7078 384.54 48.0066V80.0961C384.54 80.4323 384.279 80.6938 383.98 80.6938C383.681 80.6938 383.419 80.4323 383.419 80.1334V48.6043H348.341V83.6823C348.341 83.9812 348.08 84.2427 347.781 84.2427Z" fill="#02012D"/>
<path d="M365.861 122.794C361.603 122.794 358.166 119.357 358.166 115.099C358.166 110.84 361.603 107.403 365.861 107.403C370.12 107.403 373.557 110.877 373.557 115.099C373.557 119.357 370.12 122.794 365.861 122.794ZM365.861 108.561C362.238 108.561 359.324 111.513 359.324 115.136C359.324 118.76 362.275 121.674 365.861 121.674C369.485 121.674 372.399 118.722 372.399 115.136C372.399 111.475 369.485 108.561 365.861 108.561Z" fill="#02012D"/>
<path d="M360.408 158.955C360.296 158.955 360.184 158.918 360.072 158.843C358.465 157.76 356.934 156.564 355.477 155.257C353.833 153.8 352.301 152.268 350.882 150.625C350.807 150.513 350.732 150.4 350.732 150.251C350.732 149.952 350.994 149.653 351.293 149.653C351.517 149.653 351.666 149.765 351.778 149.915C353.161 151.484 354.655 153.015 356.224 154.398C357.643 155.668 359.138 156.826 360.707 157.909C360.968 158.096 361.043 158.432 360.856 158.694C360.781 158.843 360.595 158.955 360.408 158.955Z" fill="#02012D"/>
<path d="M418.983 154.135C418.833 154.135 418.684 154.061 418.572 153.948C418.348 153.724 418.348 153.351 418.609 153.127C419.991 151.819 421.336 150.362 422.569 148.793C429.219 140.612 432.842 130.302 432.842 119.767C432.842 114.761 432.058 109.83 430.451 105.086C430.339 104.787 430.526 104.451 430.825 104.376C431.124 104.264 431.46 104.451 431.535 104.75C433.141 109.606 433.963 114.649 433.963 119.804C433.963 130.601 430.227 141.173 423.428 149.54C422.158 151.147 420.776 152.641 419.356 153.986C419.282 154.098 419.132 154.135 418.983 154.135Z" fill="#02012D"/>
<path d="M431.013 115.135C430.714 115.135 430.452 114.874 430.452 114.575V106.655C430.452 106.095 430.452 105.535 430.378 105.012C429.518 89.3593 416.556 77.1063 400.903 77.1063H393.619C393.208 77.1063 392.759 77.1063 392.348 77.1437C389.397 77.4052 386.633 78.6006 384.354 80.5431C381.253 83.2328 379.498 87.1179 379.498 91.1898C379.498 94.9628 380.955 98.5117 383.644 101.201C383.98 101.538 384.354 101.874 384.765 102.21C386.932 103.966 389.547 105.049 392.348 105.273C392.797 105.311 393.208 105.311 393.656 105.311H411.027C411.326 105.311 411.587 105.572 411.587 105.871C411.587 106.17 411.326 106.431 411.027 106.431H393.656C393.208 106.431 392.722 106.431 392.274 106.357C389.248 106.095 386.409 104.937 384.055 103.032C383.644 102.696 383.233 102.322 382.86 101.949C379.983 99.0721 378.377 95.2243 378.377 91.1524C378.377 86.7443 380.282 82.5604 383.644 79.6092C386.072 77.4799 389.061 76.2097 392.274 75.9483C392.722 75.9109 393.208 75.8735 393.656 75.8735H400.94C417.228 75.8735 430.676 88.6122 431.573 104.825C431.61 105.385 431.648 105.983 431.648 106.543V114.463C431.61 114.874 431.349 115.135 431.013 115.135Z" fill="#02012D"/>
<path d="M396.719 135.195C396.532 135.195 396.345 135.121 396.233 134.934C393.88 131.46 392.609 127.425 392.609 123.204C392.609 122.083 392.684 120.925 392.871 119.879C393.842 113.902 397.354 108.635 402.546 105.459L402.584 105.422C402.957 105.235 403.443 105.534 403.443 105.945C403.443 106.169 403.293 106.356 403.107 106.468C398.213 109.494 394.888 114.425 393.992 120.103C393.842 121.112 393.73 122.195 393.73 123.279C393.73 127.276 394.925 131.086 397.167 134.374C397.354 134.635 397.279 135.009 397.017 135.158C396.943 135.158 396.831 135.195 396.719 135.195Z" fill="#02012D"/>
<path d="M332.576 108.112C332.464 108.112 332.315 108.075 332.203 107.963C331.941 107.776 331.941 107.402 332.128 107.141L332.464 106.73C332.651 106.469 333.025 106.469 333.286 106.655C333.548 106.842 333.548 107.216 333.361 107.477L333.025 107.888C332.912 108.038 332.726 108.112 332.576 108.112Z" fill="#02012D"/>
<path d="M347.258 151.558C344.68 151.558 342.177 150.736 340.085 149.204L331.157 142.63C326.525 139.193 323.574 134.15 322.901 128.434C322.229 122.718 323.873 117.115 327.534 112.707L332.091 107.215C332.278 106.954 332.651 106.954 332.913 107.141C333.174 107.327 333.174 107.701 332.988 107.963L328.43 113.454C324.956 117.638 323.387 122.905 324.059 128.322C324.694 133.739 327.496 138.483 331.867 141.733L340.795 148.308C343.784 150.512 347.743 151.035 351.143 149.765C353.085 149.018 354.804 147.747 356.037 146.066C357.83 143.638 358.54 140.687 358.017 137.699C357.494 134.71 355.813 132.132 353.31 130.489L345.577 125.371L335.117 118.198C334.855 118.012 334.781 117.675 334.967 117.414C335.154 117.152 335.49 117.078 335.752 117.264L348.117 125.707L353.907 129.555C356.709 131.423 358.54 134.262 359.1 137.549C359.66 140.836 358.876 144.124 356.896 146.814C355.514 148.681 353.646 150.101 351.479 150.923C350.172 151.296 348.715 151.558 347.258 151.558Z" fill="#02012D"/>
<path d="M339.601 111.138C339.526 111.138 339.489 111.138 339.414 111.138C336.724 111.101 334.222 110.017 332.354 108.149L332.13 107.925C332.092 107.888 332.092 107.888 332.055 107.85L318.196 93.9911C316.253 92.0486 315.207 89.5083 315.207 86.7813C315.207 84.0542 316.253 81.514 318.196 79.5714L324.098 73.6691C328.058 69.7093 334.558 69.7093 338.518 73.6691L339.825 74.9766C339.862 75.0139 339.862 75.0139 339.9 75.0513L348.156 83.2698C348.193 83.3071 348.193 83.3071 348.23 83.3445L352.713 87.8273C354.656 89.7698 355.702 92.3101 355.702 95.0371C355.702 97.7642 354.656 100.304 352.713 102.247L346.773 108.187C344.868 110.092 342.328 111.138 339.601 111.138ZM333.064 107.215L333.213 107.365C334.894 109.046 337.098 109.98 339.489 110.017C341.954 110.055 344.271 109.121 346.026 107.365L351.966 101.425C355.478 97.9136 355.478 92.1607 351.966 88.6491L347.409 84.129C347.371 84.0916 347.371 84.0916 347.334 84.0542L339.078 75.8358C339.041 75.7984 339.041 75.7984 339.003 75.7611L337.77 74.5283C334.222 71.0167 328.469 71.0167 324.957 74.5283L319.055 80.4306C315.543 83.9422 315.543 89.6951 319.055 93.2066L333.026 107.178C332.989 107.141 333.026 107.178 333.064 107.215Z" fill="#02012D"/>
<path d="M339.45 71.3908C339.3 71.3908 339.188 71.3534 339.076 71.2413L326.001 59.1751C322.826 56.2613 321.07 52.2641 321.07 47.9307C321.07 44.1577 322.49 40.4967 325.03 37.695C327.757 34.6691 331.53 32.876 335.602 32.6892C339.674 32.5024 343.634 33.922 346.66 36.6864L348.229 38.1059C348.415 38.3301 348.453 38.6663 348.229 38.9278C348.004 39.1519 347.668 39.1893 347.407 38.9651L345.838 37.5456C343.073 34.968 339.45 33.6605 335.639 33.8473C331.866 34.034 328.392 35.6777 325.852 38.4795C323.498 41.0945 322.191 44.4566 322.191 47.9307C322.191 51.9279 323.797 55.6262 326.749 58.3159L339.823 70.3448C340.048 70.5689 340.085 70.9051 339.861 71.1666C339.749 71.316 339.599 71.3908 339.45 71.3908Z" fill="#02012D"/>
<path d="M355.887 167.845C355.588 167.845 355.326 167.584 355.326 167.285V154.845C355.326 154.546 355.588 154.285 355.887 154.285C356.185 154.285 356.447 154.546 356.447 154.845V167.285C356.447 167.584 356.185 167.845 355.887 167.845Z" fill="#02012D"/>
<path d="M219.2 103.219H218.453C218.154 103.219 217.855 102.957 217.855 102.659C217.855 102.36 218.116 102.098 218.415 102.098H219.2C220.769 102.098 222.263 101.463 223.384 100.38C224.504 99.2592 225.14 97.8023 225.14 96.1959C225.14 92.9459 222.487 90.2936 219.237 90.2936H218.191C217.892 90.2936 217.631 90.0321 217.631 89.7332C217.631 89.4344 217.892 89.1729 218.191 89.1729H219.237C223.122 89.1729 226.298 92.3482 226.298 96.2333C226.298 98.1385 225.55 99.8942 224.206 101.239C222.861 102.472 221.068 103.219 219.2 103.219Z" fill="#02012D"/>
<path d="M183.001 113.605C179.415 113.605 176.09 111.998 173.886 109.159C173.699 108.898 173.737 108.562 173.998 108.337C174.26 108.151 174.596 108.188 174.82 108.45C176.837 110.99 179.826 112.447 183.039 112.447C188.792 112.447 193.499 107.74 193.499 101.987C193.499 96.2339 188.792 91.5269 183.039 91.5269C180.947 91.5269 178.929 92.1247 177.174 93.3201C176.912 93.5069 176.539 93.4321 176.389 93.1706C176.202 92.9091 176.277 92.5356 176.539 92.3862C178.444 91.0787 180.723 90.4062 183.039 90.4062C189.427 90.4062 194.657 95.5988 194.657 102.024C194.619 108.412 189.389 113.605 183.001 113.605Z" fill="#02012D"/>
<path d="M162.493 145.656C162.381 145.656 162.306 145.619 162.232 145.581C161.97 145.432 161.858 145.096 162.007 144.797L167.013 135.757C168.209 133.59 168.209 130.975 167.051 128.771C160.737 116.742 159.131 106.32 162.269 97.7649C165.893 87.7906 174.597 84.1297 174.97 83.9803C187.821 77.779 197.459 68.9255 203.585 57.6438C210.048 45.7643 210.646 34.6694 210.646 31.1952C208.442 32.8016 202.353 36.9108 193.275 40.7959C192.976 40.908 192.64 40.7959 192.528 40.497C192.416 40.1982 192.528 39.862 192.827 39.7499C204.183 34.8935 210.758 29.7009 210.833 29.6262C211.019 29.4768 211.244 29.4768 211.43 29.5515C211.617 29.6262 211.767 29.813 211.767 30.0372C211.767 30.1866 212.476 43.6724 204.557 58.2041C198.318 69.6726 188.531 78.713 175.418 85.0262C175.306 85.0636 166.789 88.6872 163.315 98.1758C160.326 106.432 161.895 116.518 168.059 128.248C169.404 130.826 169.367 133.814 168.022 136.317L163.016 145.357C162.867 145.581 162.68 145.656 162.493 145.656Z" fill="#02012D"/>
<path d="M120.765 145.656C120.653 145.656 120.503 145.619 120.429 145.544C105.523 133.889 96.9688 116.331 96.9688 97.3912C96.9688 71.5777 113.294 48.4166 137.65 39.7872C160.849 31.5313 197.608 23.1261 197.981 23.014C198.168 22.9767 198.318 23.014 198.467 23.1261C198.616 23.2381 198.691 23.3876 198.691 23.5744C198.691 34.0716 193.685 40.3849 193.461 40.6464C193.237 40.8705 192.863 40.9079 192.639 40.6837C192.415 40.4596 192.378 40.1234 192.602 39.8992C192.751 39.7125 197.309 33.9595 197.496 24.2841C192.266 25.5169 159.354 33.2497 137.986 40.8332C114.115 49.3131 98.0894 72.026 98.0894 97.3539C98.0894 115.92 106.495 133.142 121.101 144.61C121.363 144.797 121.4 145.17 121.213 145.432C121.101 145.581 120.914 145.656 120.765 145.656Z" fill="#02012D"/>
<path d="M418.982 323.286C418.945 323.286 418.945 323.286 418.907 323.286C418.609 323.249 418.384 322.95 418.422 322.651C419.543 313.685 423.689 274.349 425.445 257.837C428.882 225.337 432.318 192.201 432.804 187.233H348.49C348.191 187.233 347.93 186.972 347.93 186.673C347.93 186.374 348.191 186.112 348.49 186.112H433.439C433.589 186.112 433.775 186.187 433.85 186.299C433.962 186.411 434 186.598 434 186.747C434 186.747 430.264 222.759 426.566 257.987C424.847 274.498 420.701 313.835 419.543 322.838C419.543 323.062 419.281 323.286 418.982 323.286Z" fill="#02012D"/>
<path d="M394.627 91.4899H391.713C389.547 91.4899 387.791 89.7341 387.791 87.5674V82.3375C387.791 80.1708 389.547 78.415 391.713 78.415H394.627C396.794 78.415 398.587 80.1708 398.587 82.3375V87.5674C398.587 89.6968 396.831 91.4899 394.627 91.4899ZM391.713 79.5357C390.182 79.5357 388.912 80.8059 388.912 82.3375V87.5674C388.912 89.0991 390.182 90.3692 391.713 90.3692H394.627C396.159 90.3692 397.429 89.0991 397.429 87.5674V82.3375C397.429 80.8059 396.159 79.5357 394.627 79.5357H391.713Z" fill="#02012D"/>
<path d="M342.366 103.218C341.805 103.218 341.245 103.069 340.797 102.695L339.303 101.612C338.107 100.715 337.808 99.0343 338.705 97.8016L342.067 93.132C342.478 92.5343 343.113 92.1607 343.823 92.0486C344.533 91.9366 345.242 92.1233 345.84 92.5343L347.334 93.6176C347.932 94.0285 348.306 94.6636 348.418 95.4107C348.53 96.1205 348.38 96.8303 347.932 97.428L344.57 102.098C344.01 102.807 343.188 103.218 342.366 103.218ZM341.432 101.761C342.142 102.247 343.113 102.098 343.636 101.425L346.998 96.7556C347.26 96.4194 347.334 96.0084 347.26 95.5975C347.185 95.1866 346.961 94.813 346.625 94.5889L345.13 93.5055C344.794 93.2441 344.383 93.1693 343.972 93.244C343.561 93.3188 343.188 93.5429 342.964 93.8791L339.601 98.5487C339.078 99.2585 339.265 100.23 339.938 100.753L341.432 101.761Z" fill="#02012D"/>
<path d="M346.809 150.102C346.249 150.102 345.689 149.953 345.24 149.579L343.746 148.496C342.551 147.599 342.252 145.918 343.148 144.685L346.51 140.016C347.407 138.783 349.088 138.522 350.321 139.418L351.815 140.502C352.413 140.912 352.786 141.548 352.898 142.257C353.01 142.967 352.861 143.677 352.413 144.275L349.051 148.944C348.49 149.729 347.668 150.102 346.809 150.102ZM345.913 148.683C346.622 149.206 347.594 149.056 348.117 148.346L351.479 143.677C351.74 143.341 351.815 142.93 351.74 142.519C351.666 142.108 351.441 141.734 351.105 141.51L349.611 140.427C348.901 139.904 347.93 140.091 347.407 140.763L344.045 145.433C343.522 146.142 343.709 147.114 344.381 147.637L345.913 148.683Z" fill="#02012D"/>
</g>
</svg>
