<svg width="102" height="88" viewBox="0 0 102 88" fill="none" xmlns="http://www.w3.org/2000/svg">
<g clip-path="url(#clip0)">
<path d="M56.0031 24.6387C56.0402 24.2079 55.7767 23.7696 55.2067 23.4404L41.0653 15.2758C39.9996 14.6607 38.2776 14.6607 37.2189 15.2758L23.1696 23.4404C22.6419 23.7472 22.379 24.1487 22.3796 24.5505C22.3796 24.5505 22.3793 24.5479 22.3793 24.5467L22.3696 27.9634C22.3686 28.3693 22.6363 28.7757 23.1725 29.0852L37.3139 37.2498C37.8344 37.5502 38.5116 37.7036 39.1915 37.7105C39.9036 37.7177 40.6187 37.5645 41.1602 37.2498L47.0905 33.8034L47.8038 34.2152L47.7995 35.7425H52.6452L52.6549 32.3257L52.6449 30.5754L55.2094 29.085C55.7353 28.7793 55.9986 28.3794 55.9999 27.9788L56.0097 24.562C56.0095 24.5878 56.0054 24.6131 56.0031 24.6387Z" fill="#FF5023"/>
<path d="M55.219 25.6687L49.2887 29.1151L49.2791 32.5319L55.2093 29.0855C55.7352 28.7798 55.9985 28.3799 55.9998 27.9793L56.0094 24.5625C56.008 24.9631 55.7449 25.3631 55.219 25.6687Z" fill="#FF3502"/>
<path d="M49.1296 31.5584L49.12 34.9754L47.0903 33.8035L47.1 30.3867L49.1296 31.5584Z" fill="#CD2A01"/>
<path d="M52.6548 32.3262L52.645 35.7428L47.7993 35.743L47.809 32.3262H52.6548Z" fill="#FF3502"/>
<path d="M55.2082 23.4406C56.2739 24.0558 56.2794 25.0534 55.2208 25.6687L49.2905 29.1151L51.3201 30.2868L52.6407 29.5194L52.6565 32.3262H47.8108L49.1314 31.5588L47.1018 30.3871L41.1715 33.8335C40.1127 34.4486 38.3906 34.4486 37.3252 33.8335L23.1838 25.669C22.1181 25.0539 22.1125 24.0562 23.1714 23.4409L37.2207 15.2763C38.2796 14.6612 40.0017 14.6612 41.0671 15.2763L55.2082 23.4406Z" fill="#FF6342"/>
<path d="M41.1693 33.833C40.6252 34.1492 39.9062 34.3024 39.1909 34.2937V37.7106C39.903 37.7178 40.6181 37.5646 41.1597 37.2499L47.0899 33.8035L47.0996 30.3867L41.1693 33.833Z" fill="#FF3502"/>
<path d="M37.323 33.8331L23.1817 25.6686C22.6455 25.3589 22.3777 24.9525 22.3788 24.5469L22.3691 27.9637C22.3681 28.3695 22.6358 28.7759 23.172 29.0854L37.3134 37.2499C37.8339 37.5503 38.5111 37.7037 39.191 37.7106V34.2936C38.5144 34.2855 37.8411 34.1323 37.323 33.8331Z" fill="#FF5023"/>
<path d="M78.516 37.6354C78.5528 37.2047 78.289 36.7666 77.7194 36.4376L63.5783 28.2731C62.5124 27.6577 60.7903 27.6577 59.7316 28.273L45.6823 36.4376C45.1545 36.7442 44.8915 37.1458 44.8923 37.5477C44.8923 37.5464 44.892 37.5449 44.892 37.5449L44.8823 40.9603C44.8813 41.3661 45.149 41.7727 45.6855 42.0822L48.3155 43.6008L48.3089 45.933L48.3244 48.7397H53.1701L53.1744 47.1973L53.8572 46.8006L59.8263 50.2468C60.3322 50.539 60.9862 50.6922 61.6467 50.7069C62.3776 50.7233 63.1168 50.5702 63.6729 50.247L77.7223 42.0823C78.2482 41.7767 78.5113 41.3767 78.5124 40.9761L78.5224 37.5595C78.5222 37.5851 78.5181 37.6102 78.516 37.6354Z" fill="#FF9911"/>
<path d="M45.6947 38.6664C45.1584 38.3566 44.8904 37.9502 44.8915 37.5444L44.8818 40.9612C44.8808 41.367 45.1485 41.7736 45.685 42.0832L51.6539 45.5293L51.6636 42.1125L45.6947 38.6664Z" fill="#FF9911"/>
<path d="M53.8667 43.3843L53.8571 46.8009L51.8406 47.9728L51.8504 44.556L53.8667 43.3843Z" fill="#F18700"/>
<path d="M53.1796 45.3232L53.1699 48.74H48.3242L48.3337 45.3232H53.1796Z" fill="#FF9911"/>
<path d="M48.3337 45.3233L48.3242 48.7401L48.3086 45.9334L48.3183 42.5166L48.3337 45.3233Z" fill="#FF9911"/>
<path d="M77.721 36.438C78.7868 37.0531 78.7924 38.0509 77.7339 38.6662L63.6846 46.8308C62.6258 47.446 60.9035 47.4458 59.8379 46.8307L53.8688 43.3844L51.8524 44.5561L53.1818 45.3236H48.3361L48.3206 42.5169L49.6496 43.2841L51.6661 42.1123L45.6971 38.6662C44.6313 38.0509 44.6257 37.0533 45.6843 36.438L59.7336 28.2733C60.7924 27.6582 62.5146 27.6582 63.5803 28.2735L77.721 36.438Z" fill="#FFA834"/>
<path d="M59.8357 46.8305L53.8666 43.3843L53.8569 46.8011L59.826 50.2473C60.332 50.5395 60.9859 50.6927 61.6464 50.7074V47.2905C60.9891 47.2744 60.3392 47.1211 59.8357 46.8305Z" fill="#FF9911"/>
<path d="M77.732 38.6663L63.6826 46.8309C63.1241 47.1554 62.3809 47.3086 61.6467 47.2907V50.7076C62.3777 50.724 63.1169 50.571 63.673 50.2477L77.7223 42.0831C78.2482 41.7774 78.5114 41.3774 78.5126 40.9769L78.5221 37.5601C78.521 37.9606 78.2577 38.3606 77.732 38.6663Z" fill="#F18700"/>
<path d="M33.6339 37.638C33.671 37.2072 33.4073 36.7689 32.8375 36.44L30.2498 34.9459L30.2564 32.6137L30.2406 29.8068H25.3949L25.3906 31.3492L24.7078 31.7459L18.6964 28.2753C17.6307 27.6602 15.9087 27.6602 14.8501 28.2753L0.800103 36.4401C0.272377 36.7467 0.00935841 37.1483 0.0101252 37.5502C0.0101252 37.5489 0.0098185 37.5475 0.0098185 37.5462L3.21513e-06 40.9631C-0.00107033 41.3689 0.266703 41.7753 0.802863 42.0848L14.9442 50.2495C15.4965 50.5683 16.225 50.7214 16.9461 50.7099C17.6166 50.6991 18.2807 50.5459 18.7908 50.2495L32.8401 42.0848C33.366 41.7792 33.6293 41.3792 33.6306 40.9786L33.6402 37.5618C33.6401 37.587 33.6359 37.6126 33.6339 37.638Z" fill="#D8D8DA"/>
<path d="M26.7236 30.5742L26.714 33.9909L25.3848 33.2236L25.3944 29.8066L26.7236 30.5742Z" fill="#D8D8DA"/>
<path d="M30.2558 32.6136L30.2461 36.0304L28.9167 35.263L28.9266 31.8462L30.2558 32.6136Z" fill="#D8D8DA"/>
<path d="M28.927 31.8462L28.9172 35.263L26.9009 36.4348L26.9105 33.018L28.927 31.8462Z" fill="#C6C5CB"/>
<path d="M30.242 29.8067L30.2578 32.6135L28.9285 31.8461L26.912 33.0178L32.8388 36.4396C33.9045 37.0548 33.91 38.0524 32.8514 38.6677L18.802 46.8323C17.7432 47.4475 16.0211 47.4475 14.9556 46.8323L0.814426 38.668C-0.2513 38.0529 -0.256821 37.0552 0.80185 36.44L14.8512 28.2753C15.91 27.6602 17.6322 27.6602 18.6976 28.2753L24.709 31.7461L26.7254 30.5744L25.396 29.807L30.242 29.8067Z" fill="#E0E0E2"/>
<path d="M14.9539 46.8326L0.812678 38.6681C0.276518 38.3584 0.00874496 37.952 0.0098185 37.5464L3.21513e-06 40.9632C-0.00107033 41.369 0.266703 41.7754 0.802863 42.0849L14.9442 50.2494C15.4965 50.5682 16.225 50.7213 16.9461 50.7098V47.2931C16.2282 47.3032 15.5037 47.15 14.9539 46.8326Z" fill="#D8D8DA"/>
<path d="M32.85 38.6682L18.8006 46.8328C18.2881 47.1308 17.62 47.2839 16.9463 47.2934V50.71C17.6168 50.6993 18.2809 50.5461 18.791 50.2496L32.8403 42.085C33.3662 41.7794 33.6295 41.3794 33.6308 40.9788L33.6404 37.562C33.6392 37.9624 33.3759 38.3624 32.85 38.6682Z" fill="#C6C5CB"/>
<path d="M56.1466 50.6352C56.1834 50.2044 55.9196 49.7663 55.35 49.4375L41.2089 41.2731C40.143 40.6577 38.4208 40.6577 37.3622 41.273L31.432 44.7192L30.7187 44.3074L30.723 42.7801H25.8771L25.8675 46.1969L25.8776 47.9472L23.3129 49.4378C22.7853 49.7443 22.5223 50.146 22.5229 50.5478C22.5229 50.5466 22.5226 50.5452 22.5226 50.5452L22.5129 53.9606C22.5119 54.3664 22.7796 54.773 23.3161 55.0826L37.4572 63.2471C37.9768 63.5471 38.6525 63.7005 39.3313 63.7078C40.0446 63.7156 40.7614 63.5624 41.304 63.2471L55.3534 55.0825C55.8792 54.7768 56.1424 54.3769 56.1436 53.9763L56.1533 50.5595C56.153 50.5848 56.1489 50.6099 56.1466 50.6352Z" fill="#943EC7"/>
<path d="M30.7226 42.7803L30.713 46.1971L29.3923 46.9645L29.402 43.5477L30.7226 42.7803Z" fill="#943EC7"/>
<path d="M25.8931 45.587L25.8834 49.0038L25.8672 46.1971L25.877 42.7803L25.8931 45.587Z" fill="#943EC7"/>
<path d="M27.2135 44.8198L27.2039 48.2366L25.8835 49.0039L25.8932 45.5871L27.2135 44.8198Z" fill="#943EC7"/>
<path d="M29.2431 45.9915L29.2335 49.4083L27.2039 48.2366L27.2135 44.8198L29.2431 45.9915Z" fill="#7F33AD"/>
<path d="M55.3517 49.4375C56.4175 50.0526 56.4231 51.0504 55.3646 51.6657L41.3153 59.8303C40.2564 60.4455 38.5342 60.4453 37.4686 59.8302L23.3275 51.6659C22.2616 51.0504 22.2561 50.0529 23.3146 49.4376L29.2449 45.9913L27.2153 44.8194L25.895 45.5867L25.8789 42.78H30.7246L29.4039 43.5474L31.4336 44.7193L37.3638 41.2729C38.4227 40.6577 40.1448 40.6577 41.2105 41.273L55.3517 49.4375Z" fill="#A258CB"/>
<path d="M37.4666 59.8304L23.3255 51.666C22.7892 51.3562 22.5213 50.9497 22.5224 50.5439L22.5127 53.9607C22.5116 54.3665 22.7794 54.7731 23.3159 55.0827L37.4569 63.2472C37.9765 63.5472 38.6523 63.7006 39.331 63.7079V60.291C38.6555 60.2822 37.9837 60.129 37.4666 59.8304Z" fill="#943EC7"/>
<path d="M55.3628 51.6658L41.3134 59.8304C40.7684 60.1471 40.0477 60.3003 39.3311 60.291V63.7079C40.0445 63.7157 40.7612 63.5625 41.3038 63.2472L55.3531 55.0826C55.879 54.7769 56.1422 54.3769 56.1434 53.9764L56.1531 50.5596C56.1519 50.9603 55.8887 51.3601 55.3628 51.6658Z" fill="#7F33AD"/>
</g>
<rect x="54" y="45" width="48" height="26" rx="13" fill="#FF6624"/>
<path d="M66.0322 52.9238H68.2402L72.2529 59.958V52.9238H74.2148V63H72.1094L67.9941 55.8428V63H66.0322V52.9238ZM78.4058 56.957C77.9546 56.957 77.6037 57.0983 77.3531 57.3809C77.107 57.6634 76.952 58.0462 76.8882 58.5293H79.9166C79.8847 58.0143 79.7274 57.6247 79.4449 57.3604C79.1669 57.0915 78.8205 56.957 78.4058 56.957ZM78.4058 55.3506C79.0256 55.3506 79.5839 55.4668 80.0806 55.6992C80.5774 55.9316 80.9875 56.2985 81.3111 56.7998C81.6028 57.2419 81.7919 57.7546 81.8785 58.3379C81.9286 58.6797 81.9491 59.1719 81.94 59.8145H76.8404C76.8677 60.5618 77.1024 61.0859 77.5445 61.3867C77.8134 61.5736 78.1369 61.667 78.5152 61.667C78.9162 61.667 79.2421 61.5531 79.4927 61.3252C79.6295 61.2021 79.7502 61.0312 79.855 60.8125H81.8443C81.7942 61.2546 81.564 61.7035 81.1539 62.1592C80.5158 62.8838 79.6226 63.2461 78.4742 63.2461C77.5263 63.2461 76.69 62.9408 75.9654 62.3301C75.2408 61.7194 74.8785 60.7259 74.8785 59.3496C74.8785 58.0599 75.2043 57.071 75.856 56.3828C76.5123 55.6947 77.3622 55.3506 78.4058 55.3506ZM86.213 55.5488H88.1886L89.3234 60.915L90.4855 55.5488H92.5157L90.3556 63H88.3527L87.1837 57.5723L86.0011 63H83.9777L81.8859 55.5488H83.9777L85.1398 60.8945L86.213 55.5488Z" fill="white"/>
<defs>
<clipPath id="clip0">
<rect width="78.5223" height="78.5223" fill="white"/>
</clipPath>
</defs>
</svg>
