<svg width="51" height="51" viewBox="0 0 51 51" fill="none" xmlns="http://www.w3.org/2000/svg">
<circle cx="25.5" cy="25.5" r="25.5" fill="#7534FF"/>
<path fill-rule="evenodd" clip-rule="evenodd" d="M19.4153 19C21.9962 19 24.1565 20.8624 24.7009 23.3545C25.6832 27.8663 22.6443 31.8525 19.0091 34L19.4182 30.1713C16.4253 30.1713 14 27.6703 14 24.5842C14 21.501 16.4253 19 19.4153 19ZM31.5276 19C34.1085 19 36.2689 20.8624 36.8133 23.3545C37.7955 27.8663 34.7566 31.8525 31.1215 34L31.5305 30.1713C28.5377 30.1713 26.1152 27.6703 26.1152 24.5871C26.1123 21.501 28.5377 19 31.5276 19Z" fill="white"/>
</svg>
